<svg width="800" height="800" viewBox="0 0 800 800" fill="none" xmlns="http://www.w3.org/2000/svg">
  <rect width="800" height="800" fill="#F3F4F6"/>
  <path d="M300 300C300 300 250 350 300 400C350 450 400 500 450 450C500 400 500 350 450 300C400 250 350 250 300 300Z" fill="#FEF3C7"/>
  <path d="M350 350C350 350 300 400 350 450C400 500 450 550 500 500C550 450 550 400 500 350C450 300 400 300 350 350Z" fill="#FEF3C7"/>
  <path d="M400 400C400 400 350 450 400 500C450 550 500 600 550 550C600 500 600 450 550 400C500 350 450 350 400 400Z" fill="#FEF3C7"/>
  <path d="M300 300C300 300 250 350 300 400C350 450 400 500 450 450C500 400 500 350 450 300C400 250 350 250 300 300Z" stroke="#F59E0B" stroke-width="5"/>
  <path d="M350 350C350 350 300 400 350 450C400 500 450 550 500 500C550 450 550 400 500 350C450 300 400 300 350 350Z" stroke="#F59E0B" stroke-width="5"/>
  <path d="M400 400C400 400 350 450 400 500C450 550 500 600 550 550C600 500 600 450 550 400C500 350 450 350 400 400Z" stroke="#F59E0B" stroke-width="5"/>
</svg> 