<svg width="800" height="800" viewBox="0 0 800 800" fill="none" xmlns="http://www.w3.org/2000/svg">
  <rect width="800" height="800" fill="#FDF6E3"/>
  <path d="M300 300C300 244.772 344.772 200 400 200C455.228 200 500 244.772 500 300V500C500 555.228 455.228 600 400 600C344.772 600 300 555.228 300 500V300Z" fill="#D4A373"/>
  <path d="M350 300C350 272.386 372.386 250 400 250C427.614 250 450 272.386 450 300V500C450 527.614 427.614 550 400 550C372.386 550 350 527.614 350 500V300Z" fill="#E9D8A6"/>
  <path d="M375 300C375 286.193 386.193 275 400 275C413.807 275 425 286.193 425 300V500C425 513.807 413.807 525 400 525C386.193 525 375 513.807 375 500V300Z" fill="#FAEDCD"/>
</svg> 