<svg width="300" height="300" viewBox="0 0 300 300" fill="none" xmlns="http://www.w3.org/2000/svg">
  <rect width="300" height="300" fill="#F3F4F6"/>
  <path d="M150 120C161.046 120 170 111.046 170 100C170 88.9543 161.046 80 150 80C138.954 80 130 88.9543 130 100C130 111.046 138.954 120 150 120Z" fill="#D1D5DB"/>
  <path d="M200 200H100V190C100 173.431 113.431 160 130 160H170C186.569 160 200 173.431 200 190V200Z" fill="#D1D5DB"/>
  <rect x="98" y="220" width="104" height="8" rx="4" fill="#D1D5DB"/>
  <rect x="124" y="236" width="52" height="8" rx="4" fill="#D1D5DB"/>
  <path d="M150 300C232.843 300 300 232.843 300 150C300 67.1573 232.843 0 150 0C67.1573 0 0 67.1573 0 150C0 232.843 67.1573 300 150 300ZM150 290C227.32 290 290 227.32 290 150C290 72.68 227.32 10 150 10C72.68 10 10 72.68 10 150C10 227.32 72.68 290 150 290Z" fill="#E5E7EB"/>
  <path d="M150 60C150 57.7909 151.791 56 154 56H244C246.209 56 248 57.7909 248 60V60C248 62.2091 246.209 64 244 64H154C151.791 64 150 62.2091 150 60V60Z" fill="#D1D5DB"/>
  <path d="M56 60C56 57.7909 57.7909 56 60 56H124C126.209 56 128 57.7909 128 60V60C128 62.2091 126.209 64 124 64H60C57.7909 64 56 62.2091 56 60V60Z" fill="#D1D5DB"/>
</svg> 